<svg width="78" height="61" viewBox="0 0 78 61" fill="none" xmlns="http://www.w3.org/2000/svg">
<path d="M3 58.4567V55.1945C3 42.583 13.2236 32.3594 25.8351 32.3594C38.4466 32.3594 48.6702 42.583 48.6702 55.1945V58.4567" stroke="#1F2C38" stroke-width="4.89324" stroke-linecap="round"/>
<path d="M42.1459 38.8838C42.1459 29.8757 49.4486 22.573 58.4567 22.573C67.4648 22.573 74.7675 29.8757 74.7675 38.8838V40.5149" stroke="#1F2C38" stroke-width="4.89324" stroke-linecap="round"/>
<path d="M25.8351 32.3595C33.0416 32.3595 38.8838 26.5173 38.8838 19.3108C38.8838 12.1043 33.0416 6.26221 25.8351 6.26221C18.6286 6.26221 12.7865 12.1043 12.7865 19.3108C12.7865 26.5173 18.6286 32.3595 25.8351 32.3595Z" stroke="#1F2C38" stroke-width="4.89324" stroke-linecap="round" stroke-linejoin="round"/>
<path d="M58.4567 22.573C63.8618 22.573 68.2432 18.1914 68.2432 12.7865C68.2432 7.38157 63.8618 3 58.4567 3C53.0516 3 48.6702 7.38157 48.6702 12.7865C48.6702 18.1914 53.0516 22.573 58.4567 22.573Z" stroke="#1F2C38" stroke-width="4.89324" stroke-linecap="round" stroke-linejoin="round"/>
</svg>
