<svg width="78" height="78" viewBox="0 0 78 78" fill="none" xmlns="http://www.w3.org/2000/svg">
<path d="M3 72.3753V5.39225C3 4.07105 4.07105 3 5.39225 3H72.3753C73.6966 3 74.7675 4.07105 74.7675 5.39225V72.3753C74.7675 73.6966 73.6966 74.7675 72.3753 74.7675H5.39225C4.07105 74.7675 3 73.6966 3 72.3753Z" stroke="#1F2C38" stroke-width="5.98063"/>
<path d="M50.845 24.9289C48.1139 22.1978 43.3042 20.2981 38.8838 20.1792M38.8838 20.1792C33.6244 20.0376 28.916 22.417 28.916 28.916C28.916 40.8772 50.845 34.8966 50.845 46.8579C50.845 53.6798 45.0087 56.6111 38.8838 56.391M38.8838 20.1792V12.9677M26.9225 50.8449C29.4921 54.271 34.2699 56.2251 38.8838 56.391M38.8838 56.391V64.7997" stroke="#1F2C38" stroke-width="5.98063" stroke-linecap="round" stroke-linejoin="round"/>
</svg>
